<svg width="1760" height="1880" viewBox="0 0 880 940" fill="none" xmlns="http://www.w3.org/2000/svg">
<path d="M342.461 341.509L342.808 341.594L342.772 341.231L309.943 2.10623L455.022 305.797L455.178 306.123L455.425 305.849L608.206 136.432L558.978 364.982L558.906 365.314L559.237 365.28L877.868 332.379L593.04 487.411L592.742 487.573L592.973 487.812L750.64 651.058L536.472 598.688L536.126 598.603L536.161 598.966L568.99 938.09L423.911 634.4L423.757 634.076L423.509 634.346L269.253 803.019L319.529 574.132L319.603 573.796L319.268 573.833L1.29111 609.09L285.468 451.701L285.765 451.537L285.533 451.3L126.825 288.39L342.461 341.509Z" stroke="black" stroke-width="0.5"/>
</svg>
